<?xml version="1.0" encoding="iso-8859-1"?>
<!-- Generator: Adobe Illustrator 16.0.0, SVG Export Plug-In . SVG Version: 6.00 Build 0)  -->
<!DOCTYPE svg PUBLIC "-//W3C//DTD SVG 1.1//EN" "http://www.w3.org/Graphics/SVG/1.1/DTD/svg11.dtd">
<svg version="1.1" id="Capa_1" xmlns="http://www.w3.org/2000/svg" xmlns:xlink="http://www.w3.org/1999/xlink" x="0px" y="0px"
	 width="99.352px" height="99.352px" viewBox="0 0 99.352 99.352" style="enable-background:new 0 0 99.352 99.352;"
	 xml:space="preserve">
<g>
	<g>
		<path d="M77.258,25.428L54.481,50.237h13.031c0.109,0.814,0.236,2.077,0.236,3.6c0,8.176-8.107,26.3-31.78,26.3l-0.243,2.542
			c0.918,0.175,22.68,4.22,36.584-6.539c6.358-4.918,14.582-16.554,15.427-25.902h11.615L77.258,25.428z"/>
		<path d="M31.847,49.113c-0.111-0.812-0.238-2.074-0.238-3.598c0-8.176,8.108-26.301,31.779-26.301l0.243-2.539
			c-0.917-0.176-22.68-4.22-36.586,6.538c-6.357,4.917-14.58,16.555-15.426,25.9H0l22.099,24.813l22.778-24.813H31.847z"/>
	</g>
</g>
<g>
</g>
<g>
</g>
<g>
</g>
<g>
</g>
<g>
</g>
<g>
</g>
<g>
</g>
<g>
</g>
<g>
</g>
<g>
</g>
<g>
</g>
<g>
</g>
<g>
</g>
<g>
</g>
<g>
</g>
</svg>
