<?xml version="1.0" encoding="iso-8859-1"?>
<!-- Generator: Adobe Illustrator 19.0.0, SVG Export Plug-In . SVG Version: 6.00 Build 0)  -->
<svg version="1.1" id="Capa_1" xmlns="http://www.w3.org/2000/svg" xmlns:xlink="http://www.w3.org/1999/xlink" x="0px" y="0px"
	 viewBox="0 0 463.001 463.001" style="enable-background:new 0 0 463.001 463.001;" xml:space="preserve">
<g>
	<path d="M303.501,280.002c-26.191,0-47.5,21.309-47.5,47.5s21.309,47.5,47.5,47.5s47.5-21.309,47.5-47.5
		S329.693,280.002,303.501,280.002z M303.501,360.002c-17.921,0-32.5-14.58-32.5-32.5s14.579-32.5,32.5-32.5s32.5,14.58,32.5,32.5
		S321.422,360.002,303.501,360.002z"/>
	<path d="M303.501,313.002c-7.995,0-14.5,6.505-14.5,14.5s6.505,14.5,14.5,14.5s14.5-6.505,14.5-14.5
		S311.497,313.002,303.501,313.002z"/>
	<path d="M463.001,175.502c0-12.958-10.542-23.5-23.5-23.5h-328c-12.958,0-23.5,10.542-23.5,23.5
		c0,11.379,8.13,20.892,18.886,23.043l52.888,92.556c7.017,12.276,20.157,19.902,34.296,19.902h31.663
		c-0.624,2.944-1.082,5.947-1.369,9h-24.864c-2.113,0-4.128,0.892-5.55,2.455l-53.613,58.974c-3.278,3.606-7.286,2.438-8.436,1.993
		s-4.901-2.274-4.901-7.15v-88.772c0-1.165-0.271-2.313-0.792-3.354l-112-224c-1.852-3.705-6.355-5.207-10.063-3.354
		c-3.704,1.852-5.206,6.357-3.354,10.062l111.208,222.417v87.002c0,9.439,5.688,17.737,14.492,21.141
		c2.696,1.042,5.485,1.549,8.239,1.549c6.238,0,12.301-2.598,16.705-7.443l51.381-56.519h21.547c3.793,40.331,37.829,72,79.136,72
		c43.837,0,79.5-35.664,79.5-79.5c0-6.285-0.756-12.394-2.141-18.262l63.255-110.695
		C454.871,196.394,463.001,186.881,463.001,175.502z M111.501,167.002h328c4.687,0,8.5,3.813,8.5,8.5s-3.813,8.5-8.5,8.5h-328
		c-4.687,0-8.5-3.813-8.5-8.5S106.815,167.002,111.501,167.002z M303.501,392.002c-35.565,0-64.5-28.935-64.5-64.5
		s28.935-64.5,64.5-64.5s64.5,28.935,64.5,64.5S339.067,392.002,303.501,392.002z M303.501,248.002c-32.65,0-60.755,19.79-72.978,48
		h-36.452c-8.77,0-16.921-4.73-21.272-12.345l-48.374-84.655h302.152l-52.527,91.921
		C360.789,265.449,334.153,248.002,303.501,248.002z"/>
</g>
<g>
</g>
<g>
</g>
<g>
</g>
<g>
</g>
<g>
</g>
<g>
</g>
<g>
</g>
<g>
</g>
<g>
</g>
<g>
</g>
<g>
</g>
<g>
</g>
<g>
</g>
<g>
</g>
<g>
</g>
</svg>
