<?xml version="1.0" encoding="iso-8859-1"?>
<!-- Generator: Adobe Illustrator 19.1.0, SVG Export Plug-In . SVG Version: 6.00 Build 0)  -->
<svg version="1.1" id="Capa_1" xmlns="http://www.w3.org/2000/svg" xmlns:xlink="http://www.w3.org/1999/xlink" x="0px" y="0px"
	 viewBox="0 0 64.414 64.414" style="enable-background:new 0 0 64.414 64.414;" xml:space="preserve">
<g>
	<g>
	</g>
	<g>
	</g>
	<g>
	</g>
	<g>
	</g>
	<g>
	</g>
	<g>
	</g>
	<g>
	</g>
	<g>
	</g>
	<g>
	</g>
	<g>
	</g>
	<g>
	</g>
	<g>
	</g>
	<g>
	</g>
	<g>
	</g>
	<g>
	</g>
</g>
<g>
	<path d="M22.317,4H0v22.317l34.097,34.097l22.317-22.317L22.317,4z M2,25.489V6h19.489l32.097,32.097L34.097,57.586L2,25.489z"/>
	<polygon points="30.61,4.293 29.196,5.707 61.586,38.097 41.39,58.293 42.804,59.707 64.414,38.097 	"/>
	<path d="M14,12c-3.309,0-6,2.691-6,6s2.691,6,6,6s6-2.691,6-6S17.309,12,14,12z M14,22c-2.206,0-4-1.794-4-4s1.794-4,4-4
		s4,1.794,4,4S16.206,22,14,22z"/>
</g>
<g>
</g>
<g>
</g>
<g>
</g>
<g>
</g>
<g>
</g>
<g>
</g>
<g>
</g>
<g>
</g>
<g>
</g>
<g>
</g>
<g>
</g>
<g>
</g>
<g>
</g>
<g>
</g>
<g>
</g>
</svg>
