<?xml version="1.0" encoding="iso-8859-1"?>
<!-- Generator: Adobe Illustrator 19.0.0, SVG Export Plug-In . SVG Version: 6.00 Build 0)  -->
<svg version="1.1" id="Layer_1" xmlns="http://www.w3.org/2000/svg" xmlns:xlink="http://www.w3.org/1999/xlink" x="0px" y="0px"
	 viewBox="0 0 480 480" style="enable-background:new 0 0 480 480;" xml:space="preserve">
<g>
	<g>
		<g>
			<path d="M207.841,363.616c4.651,3.447,16.872,21.808,26.724,40.247c1.744,3.266,5.143,5.288,8.818,5.288
				c0.164,0,0.329-0.004,0.495-0.012c3.863-0.191,7.27-2.593,8.749-6.167c7.479-18.091,17.508-36.254,21.91-39.798
				c86.216-16.435,148.682-91.954,148.682-179.954C423.219,82.191,341.027,0,240,0S56.781,82.191,56.781,183.219
				c0,43.476,15.506,85.631,43.66,118.699C128.05,334.345,166.156,356.228,207.841,363.616z M240,20
				c89.999,0,163.219,73.22,163.219,163.219c0,78.692-56.064,146.181-133.313,160.474c-5.833,1.082-12.907,5.314-25.081,28.751
				c-0.846,1.629-1.663,3.249-2.444,4.83c-1.077-1.779-2.208-3.613-3.373-5.458c-13.615-21.545-20.549-26.67-26.772-27.736
				c-78.488-13.448-135.455-81.1-135.455-160.861C76.781,93.22,150.001,20,240,20z"/>
			<path d="M321.906,371.244c-5.384-1.206-10.736,2.183-11.944,7.573c-1.206,5.389,2.185,10.737,7.573,11.943
				c38.87,8.704,56.574,22.028,56.574,30.724c0,5.96-9.235,16.039-35.265,24.832C312.725,455.141,277.796,460,240.494,460
				c-37.309,0-72.242-4.859-98.365-13.684c-26.029-8.793-35.266-18.872-35.266-24.832c0-8.011,15.83-20.591,50.586-29.284
				c5.358-1.34,8.615-6.77,7.275-12.128c-1.341-5.358-6.776-8.616-12.127-7.275c-42.39,10.602-65.734,27.892-65.734,48.686
				c0,12.442,8.478,30.138,48.865,43.78C163.859,474.767,201.066,480,240.494,480c39.421,0,76.623-5.233,104.752-14.735
				c40.386-13.642,48.863-31.338,48.863-43.78C394.109,399.513,368.467,381.67,321.906,371.244z"/>
			<path d="M141.966,293.553c5.907,4.611,12.982,7.048,20.461,7.048c10.336,0,19.904-4.672,26.251-12.816l57.291-73.454
				c9.124-11.696,9.189-27.625,1.246-39.271l32.129-40.176l1.884,1.469c1.771,1.38,3.939,2.114,6.15,2.114
				c0.603,0,1.211-0.055,1.813-0.166c2.811-0.518,5.265-2.214,6.744-4.66l24.273-40.145c2.621-4.336,1.586-9.948-2.411-13.063
				l-10.377-8.086c-3.994-3.111-9.681-2.748-13.247,0.847l-33.033,33.31c-2.013,2.03-3.061,4.825-2.879,7.678
				c0.182,2.853,1.576,5.492,3.83,7.25l1.48,1.154l-32.076,40.109c-3.712-1.402-7.665-2.13-11.738-2.13
				c-10.343,0-19.915,4.675-26.257,12.818l-57.327,73.449C124.894,261.313,127.496,282.274,141.966,293.553z M288.445,107.372
				l-3.8,6.285l-1.371-1.069L288.445,107.372z M209.272,185.679c2.532-3.251,6.354-5.115,10.484-5.115
				c2.982,0,5.807,0.973,8.16,2.803c5.771,4.506,6.795,12.877,2.282,18.663l-37.163,47.648l-20.639-16.753L209.272,185.679z
				 M151.945,259.128l8.144-10.434l20.643,16.758l-7.827,10.036c-2.532,3.249-6.352,5.113-10.479,5.113
				c-2.977,0-5.797-0.973-8.16-2.818C148.485,273.277,147.447,264.904,151.945,259.128z"/>
		</g>
	</g>
</g>
<g>
</g>
<g>
</g>
<g>
</g>
<g>
</g>
<g>
</g>
<g>
</g>
<g>
</g>
<g>
</g>
<g>
</g>
<g>
</g>
<g>
</g>
<g>
</g>
<g>
</g>
<g>
</g>
<g>
</g>
</svg>
